<?xml version="1.0" encoding="utf-8"?>
<!-- Generator: Adobe Illustrator 15.0.0, SVG Export Plug-In . SVG Version: 6.00 Build 0)  -->
<!DOCTYPE svg PUBLIC "-//W3C//DTD SVG 1.1//EN" "http://www.w3.org/Graphics/SVG/1.1/DTD/svg11.dtd">
<svg version="1.1" id="Layer_1" xmlns="http://www.w3.org/2000/svg" xmlns:xlink="http://www.w3.org/1999/xlink" x="0px" y="0px"
	 width="595.279px" height="214px" viewBox="0 313.445 595.279 214" enable-background="new 0 313.445 595.279 214"
	 xml:space="preserve">
<g>
	<path fill="#C6C5CA" d="M456.166,393.104v39.976c0,15.326,12.54,27.868,27.867,27.868h30.521c15.327,0,27.867-12.541,27.867-27.868
		v-39.976H456.166z M52.859,393.104v39.976c0,15.326,12.541,27.868,27.868,27.868h30.521c15.327,0,27.868-12.541,27.868-27.868
		v-39.976H52.859z"/>
</g>
<g>
	<path fill="#ACABB1" d="M99.107,433.077v-39.976H52.86v39.976c0,15.327,12.541,27.867,27.868,27.867h30.521
		c2.729,0,5.367-0.404,7.863-1.144C107.581,456.385,99.107,445.676,99.107,433.077z M502.413,433.078v-39.976h-46.247v39.976
		c0,15.327,12.54,27.867,27.867,27.867h30.521c2.729,0,5.366-0.404,7.862-1.144C510.889,456.385,502.413,445.676,502.413,433.078
		L502.413,433.078z"/>
</g>
<circle fill="#FF3F62" cx="95.99" cy="475.41" r="46.248"/>
<path fill="#FF0C38" d="M91.729,429.371c-23.545,2.15-41.99,21.939-41.99,46.045s18.445,43.894,41.99,46.045
	c-11.567-11.903-18.702-28.136-18.702-46.045S80.161,441.272,91.729,429.371z"/>
<circle fill="#FF3F62" cx="499.297" cy="475.41" r="46.248"/>
<path fill="#FF0C38" d="M495.034,429.371c-23.545,2.15-41.99,21.939-41.99,46.045s18.445,43.894,41.99,46.045
	c-11.567-11.903-18.702-28.136-18.702-46.045S483.469,441.272,495.034,429.371z"/>
<path fill="#3E3D42" d="M95.987,491.205c-8.706,0-15.79-7.083-15.79-15.79s7.083-15.79,15.79-15.79s15.789,7.083,15.789,15.79
	C111.777,484.122,104.694,491.205,95.987,491.205z"/>
<path fill="#2D2D30" d="M95.987,476.735c0-6.287,3.704-11.712,9.035-14.252c-2.646-1.861-5.801-2.859-9.035-2.858
	c-8.706,0-15.79,7.083-15.79,15.79s7.083,15.79,15.79,15.79c2.338-0.002,4.646-0.529,6.754-1.541
	C98.665,486.808,95.987,482.083,95.987,476.735L95.987,476.735z"/>
<path fill="#3E3D42" d="M499.293,491.205c-8.706,0-15.79-7.083-15.79-15.79s7.083-15.79,15.79-15.79s15.789,7.083,15.789,15.79
	C515.083,484.122,507.999,491.205,499.293,491.205z"/>
<path fill="#2D2D30" d="M499.292,476.735c0-6.287,3.704-11.712,9.035-14.252c-2.645-1.861-5.801-2.859-9.035-2.858
	c-8.706,0-15.79,7.083-15.79,15.79s7.083,15.79,15.79,15.79c2.338-0.002,4.646-0.529,6.754-1.541
	C501.97,486.808,499.292,482.083,499.292,476.735L499.292,476.735z"/>
<path fill="#FFC477" d="M586.359,329.154c-11.895-11.896-31.179-11.896-43.072,0l-18.917,18.916
	c-4.787,4.813-11.302,7.512-18.091,7.492H89.001c-6.789,0.018-13.303-2.68-18.091-7.492l-18.916-18.916
	c-11.896-11.896-31.18-11.896-43.073,0c-11.895,11.895-11.895,31.179,0,43.073l18.916,18.917
	c16.338,16.337,38.059,25.334,61.164,25.334h417.277c23.105,0,44.826-8.997,61.164-25.334l18.916-18.917
	C598.253,360.332,598.253,341.048,586.359,329.154L586.359,329.154z"/>
<path fill="#FFB655" d="M174.61,372.227c-4.527-4.517-7.511-10.35-8.522-16.665H89.001c-6.789,0.018-13.303-2.68-18.091-7.492
	l-18.916-18.916c-11.896-11.896-31.18-11.896-43.073,0c-11.895,11.895-11.895,31.179,0,43.073l18.916,18.917
	c16.338,16.337,38.059,25.334,61.164,25.334h165.689c-23.105,0-44.826-8.997-61.163-25.334L174.61,372.227z"/>
<path fill="#3E3D42" d="M578.86,342.919c3.739-3.74,6.402-8.417,7.713-13.541c-0.073-0.074-0.139-0.152-0.214-0.226
	c-11.895-11.895-31.179-11.895-43.072,0l-18.917,18.917c-4.787,4.813-11.302,7.511-18.091,7.492H89.001
	c-6.789,0.018-13.303-2.68-18.091-7.492l-18.916-18.917c-11.896-11.895-31.18-11.895-43.073,0c-0.074,0.075-0.142,0.151-0.214,0.226
	c1.311,5.124,3.975,9.8,7.713,13.541l18.426,18.426c15.913,15.913,37.07,24.677,59.575,24.677H500.86
	c22.504,0,43.661-8.763,59.576-24.677L578.86,342.919z"/>
<path fill="#2D2D30" d="M166.087,355.562H89.001c-6.789,0.018-13.303-2.68-18.091-7.492l-18.916-18.916
	c-11.896-11.896-31.18-11.896-43.073,0c-0.074,0.074-0.142,0.151-0.214,0.226c1.311,5.123,3.975,9.8,7.713,13.54l18.426,18.426
	c15.913,15.913,37.07,24.677,59.575,24.677h93.983l-13.794-13.793C170.083,367.712,167.1,361.878,166.087,355.562z"/>
</svg>
